<svg width="96" height="40" viewBox="0 0 96 40" fill="none" xmlns="http://www.w3.org/2000/svg">
<g clip-path="url(#clip0_199_602)">
<path d="M0.456929 29.0948L0.582791 27.5466L1.67072 27.4207C2.67589 27.3362 3.09486 27.1276 3.09486 26.6259V5.40001C3.09486 4.77242 2.92762 4.39484 2.50865 4.18622L0.0379639 3.09829L0.163825 1.96725L7.28107 -0.0844727V26.669C7.28107 27.0879 7.53279 27.3397 8.87245 27.4224L9.919 27.5483L10.0449 29.0966H0.456929V29.0948Z" fill="#082135"/>
<path d="M19.381 29.7241C14.4413 29.7241 10.7982 25.7466 10.7982 20.3035C10.7982 14.1069 15.1517 9.58621 20.762 9.58621C24.781 9.58621 27.5861 12.0569 27.5861 15.9914C27.5861 16.6621 27.5017 17.5828 27.3344 18.2948L15.1517 18.1276V18.5879C15.193 23.2776 17.7482 26.4172 21.3482 26.4172C23.1896 26.4172 25.1155 25.6638 26.5396 23.9897L27.4189 24.4914C25.9534 27.8414 23.0655 29.7241 19.381 29.7241ZM19.9258 11.3035C17.7482 11.3035 15.6551 13.1879 15.2361 16.7466C15.2361 16.7466 23.3172 16.7052 23.1913 16.7052C23.3586 13.3138 22.0189 11.3052 19.9258 11.3052V11.3035Z" fill="#082135"/>
<path d="M36.0535 23.6724L30.369 9.53621C29.9708 8.63276 29.6501 8.39139 28.6483 8.24828L27.6863 7.92932L27.5208 6.3638H36.5759L36.4518 7.89828L35.2725 8.17415C34.9139 8.23104 34.688 8.34828 34.5742 8.53449C34.4501 8.73966 34.4535 9.03621 34.5897 9.44139L38.3811 19.4293L41.6552 10.3707C42.0121 9.4207 42.0863 8.91208 41.9156 8.6138C41.7983 8.41035 41.5466 8.28276 41.1259 8.21207L39.9035 7.89656L39.7794 6.3638H46.8949L46.7708 7.89828L45.7018 8.13621C44.6932 8.28104 44.338 8.81552 43.6397 10.5793L38.5897 23.6724H36.0501H36.0535Z" fill="#082135"/>
<path d="M46.6913 7.82589L45.6844 8.05003C44.6413 8.1983 44.2689 8.75865 43.5603 10.5466L38.531 23.5862H36.1086L30.4465 9.50348C30.0362 8.57244 29.7017 8.3121 28.6586 8.1621L27.7638 7.86382L27.6155 6.4483H36.4827L36.3707 7.82761L35.2534 8.08796C34.5465 8.20003 34.2103 8.57244 34.5086 9.46727L38.3827 19.6759L41.7362 10.4C42.2948 8.91037 42.2586 8.31382 41.1396 8.12761L39.9844 7.82934L39.8724 6.45003H46.8017L46.6896 7.82934L46.6913 7.82589Z" fill="#082135"/>
<path d="M49.019 29.0948L49.1449 27.5466L50.1915 27.4207C51.1966 27.3362 51.6156 27.1276 51.6156 26.6259V16.3259C51.6156 13.6879 51.3225 13.3121 49.8156 12.8931L48.9363 12.6845L48.9777 11.4707L55.8018 9.58621V26.6672C55.8018 27.0862 56.0535 27.3379 57.3932 27.4207L58.4397 27.5466L58.5656 29.0948H49.0208H49.019ZM53.3311 6.36035C51.657 6.36035 50.6932 5.06207 50.6932 3.55518C50.6932 2.04828 51.657 0.791382 53.3311 0.791382C55.0052 0.791382 55.969 2.08966 55.969 3.55518C55.969 5.02069 55.007 6.36035 53.3311 6.36035Z" fill="#082135"/>
<path d="M66.7086 29.7241C63.6948 29.7241 61.4758 27.9241 61.5586 23.6948L61.8103 12.8086L58.5034 12.5569L58.5448 11.1759L64.2379 6.23621L65.912 6.48793L65.8707 10.3397H72.6948L72.4017 12.6431H65.8707L65.6189 22.5241C65.5345 25.6638 67 26.669 69.1362 26.669C70.2241 26.669 71.5638 26.2914 72.6534 25.7069L72.8207 26.8379C71.3138 28.5552 68.9689 29.7276 66.7086 29.7276V29.7241Z" fill="#082135"/>
<path d="M94.9724 11.7621L93.8 12.0138C92.669 12.181 92.2086 12.8086 91.4138 14.819L86.4741 27.8397L84.2138 34.5811C83 38.2242 81.6603 40.0242 79.1897 40.0242C77.3897 40.0242 76.1759 39.019 76.1759 37.5535C76.1759 36.2983 76.8879 35.2086 78.3948 35.2086C79.7345 35.2086 80.5293 35.9621 80.9914 36.7569C81.619 36.4224 82.0379 35.669 82.7086 33.8673L84.1328 29.8069V29.6397L76.681 13.6466C76.1793 12.6414 75.8862 12.3483 74.6707 12.1397L73.75 11.8052L73.5828 10.2138H83.3793L83.2534 11.7621L82.1224 12.0552C81.2845 12.1397 80.8655 12.6 81.3276 13.6035L86.0172 24.3638L89.45 14.65C90.0362 12.9328 89.869 12.3052 88.5293 12.0966L87.2724 11.7621L87.1466 10.2138H95.1017L94.9759 11.7621H94.9724Z" fill="#082135"/>
<path d="M43.8946 29.2966H30.6394L30.9463 27.2259C31.0204 27.2259 36.3118 25.7414 43.6463 27.0535C43.698 27.4552 43.8963 29.2949 43.8963 29.2949L43.8946 29.2966Z" fill="#082135"/>
</g>
<defs>
<clipPath id="clip0_199_602">
<rect width="96" height="40" fill="white"/>
</clipPath>
</defs>
</svg>
